<svg xmlns="http://www.w3.org/2000/svg" width="24" height="24" viewBox="0 0 24 24"><circle cx="12" cy="12" r="12" fill="#FF4500"/><path d="M18.6 12.4c0-.6-.5-1.1-1.1-1.1-.3 0-.6.1-.8.3-.8-.5-1.8-.9-2.9-.9l.5-2.4 1.7.4c0 .5.4.8.8.8.5 0 .8-.4.8-.8 0-.5-.4-.8-.8-.8-.3 0-.6.2-.7.5l-1.9-.4c-.1 0-.2 0-.2.1l-.6 2.6c-1.2 0-2.2.4-3 .9-.2-.2-.5-.3-.8-.3-.6 0-1.1.5-1.1 1.1 0 .4.2.8.6 1-.1.3-.1.5-.1.8 0 1.7 2 3.1 4.5 3.1s4.5-1.4 4.5-3.1c0-.3 0-.5-.1-.8.3-.2.5-.6.5-1zm-8.4 1c0-.5.4-.8.8-.8.5 0 .8.4.8.8 0 .5-.4.8-.8.8-.4.1-.8-.3-.8-.8zm4.8 2.2c-.6.6-1.7.6-1.8.6s-1.2 0-1.8-.6c-.1-.1-.1-.2 0-.3.1-.1.2-.1.3 0 .4.4 1 .5 1.5.5s1.1-.2 1.5-.5c.1-.1.2-.1.3 0 .1.1.1.2 0 .3zm-.2-1.4c-.5 0-.8-.4-.8-.8 0-.5.4-.8.8-.8.5 0 .8.4.8.8.1.4-.3.8-.8.8z" fill="#fff"/></svg>
